<svg width="41" height="56" viewBox="0 0 41 56" fill="none" xmlns="http://www.w3.org/2000/svg">
<g clip-path="url(#clip0_463_162)">
<path d="M18.5996 1.62736C15.1502 2.88361 12.003 4.85122 9.36265 7.40239C-1.33106 17.7292 -1.39609 35.0103 9.21705 46.0005C17.4868 54.5641 29.7903 56.7496 39.8832 52.4255L18.5996 1.62736Z" fill="#5C913B"/>
<path d="M19.0318 4.2561C15.9541 5.36144 13.1463 7.1076 10.7943 9.37915C1.34836 18.5009 1.30096 33.7774 10.6879 43.4979C18.0224 51.0929 28.9381 53.0229 37.8718 49.1643L19.0318 4.2561Z" fill="#FFE8B6"/>
<path d="M19.7975 6.15735C17.0402 7.13838 14.523 8.69838 12.4157 10.7321C4.04089 18.8196 3.9692 32.3285 12.2535 40.9072C18.7485 47.633 28.445 49.3074 36.3695 45.8274L19.7975 6.15735Z" fill="#DD2E44"/>
<path d="M17.5391 18.8311C16.7056 18.972 15.9661 18.7474 15.8843 18.3288C15.8026 17.9103 16.4105 17.4573 17.244 17.3164C18.0775 17.1756 18.8171 17.4002 18.8988 17.8187C18.9806 18.2373 18.3726 18.6903 17.5391 18.8311ZM22.9337 26.5999C22.1002 26.7407 21.3606 26.5162 21.2789 26.0976C21.1971 25.679 21.8051 25.226 22.6386 25.0852C23.4721 24.9443 24.2117 25.1689 24.2934 25.5875C24.3751 26.0061 23.7672 26.459 22.9337 26.5999ZM23.3248 37.2148C22.7779 37.851 22.0741 38.137 21.7507 37.8567C21.4262 37.5752 21.6054 36.8333 22.1523 36.197C22.6981 35.5596 23.403 35.2747 23.7253 35.5561C24.0509 35.8365 23.8728 36.5774 23.3248 37.2148ZM15.7782 25.035C15.2314 25.6713 14.5275 25.9573 14.2041 25.677C13.8796 25.3955 14.0588 24.6535 14.6057 24.0173C15.1526 23.381 15.8564 23.095 16.1788 23.3764C16.5054 23.6579 16.3262 24.3977 15.7782 25.035ZM14.1644 35.0316C13.3235 35.1233 12.5982 34.8568 12.5415 34.4357C12.4836 34.0135 13.1196 33.5983 13.9616 33.5077C14.8025 33.416 15.5288 33.6836 15.5845 34.1036C15.6423 34.5257 15.0085 34.941 14.1644 35.0316ZM22.355 44.5041C22.1255 45.3162 21.6105 45.8698 21.2039 45.7456C20.794 45.6201 20.6508 44.8607 20.8803 44.0486C21.1087 43.2375 21.6248 42.6829 22.0325 42.8082C22.4435 42.9327 22.5867 43.6899 22.355 44.5041ZM20.2541 31.3549C20.0767 32.1816 19.6006 32.769 19.1863 32.6695C18.7708 32.571 18.5787 31.8221 18.7551 30.9964C18.9314 30.1707 19.4097 29.5834 19.8219 29.6828C20.2395 29.7792 20.4327 30.527 20.2541 31.3549ZM28.2448 43.0647C27.4039 43.1564 26.6786 42.8899 26.6208 42.4677C26.563 42.0455 27.199 41.6303 28.0409 41.5397C28.8829 41.4469 29.6071 41.7145 29.6638 42.1356C29.7227 42.5589 29.0889 42.9741 28.2448 43.0647Z" fill="black"/>
</g>
<defs>
<clipPath id="clip0_463_162">
<rect width="41" height="56" fill="white"/>
</clipPath>
</defs>
</svg>
