<svg width="95" height="93" viewBox="0 0 95 93" fill="none" xmlns="http://www.w3.org/2000/svg">
<path d="M34.0919 75.0244C32.9349 78.2489 30.1955 77.8649 27.3945 76.6288C23.4322 74.8798 18.1583 66.9047 17.6334 63.1429C17.1516 59.6905 18.3918 56.9875 21.0963 56.6379" fill="white"/>
<path d="M34.0919 75.0244C32.9349 78.2489 30.1955 77.8649 27.3945 76.6288C23.4322 74.8798 18.1583 66.9047 17.6334 63.1429C17.1516 59.6905 18.3918 56.9875 21.0963 56.6379" stroke="#FFD166" stroke-opacity="0.85" stroke-width="2" stroke-linecap="round" stroke-linejoin="round"/>
<path d="M20.9489 28.3362C16.7292 29.2431 19.075 35.8866 22.6333 42.3749C24.015 44.8943 20.1182 55.1742 22.5282 61.7245C24.096 65.986 29.9799 73.7702 34.1223 74.8452C41.215 76.6858 47.4447 75.4884 53.6709 72.2003C55.8779 71.0348 58.1312 69.3757 59.8224 67.8352C65.3762 62.7764 83.7803 56.5104 84.9536 54.9077C88.2144 50.4549 81.8656 47.6265 78.3758 48.7816C76.6854 49.3411 63.7962 51.9966 65.5129 50.5684C69.73 47.0601 75.2319 43.3423 80.6296 40.1268C88.7068 35.315 78.6704 26.7254 71.1539 31.308C67.6327 33.4548 64.4383 34.8356 56.6935 39.8098C59.576 35.5524 63.484 29.1525 66.7555 25.4262C72.1499 19.2814 61.0714 13.3532 54.6348 21.0041C50.2516 26.2145 43.3884 36.4622 33.9707 43.3086C34.0479 37.4464 33.6773 25.5999 20.9495 28.3352L20.9489 28.3362Z" fill="white" stroke="#FFD166" stroke-opacity="0.85" stroke-width="2" stroke-linecap="round" stroke-linejoin="round"/>
<path d="M56.1713 38.8466C52.3645 43.782 51.5477 47.1821 50.9469 48.6864C53.249 45.5271 53.7482 44.6649 56.4606 41.4794C56.9204 40.9394 57.5466 40.3852 58.4135 39.8349L56.1713 38.8466Z" fill="#FDD57A"/>
<path d="M64.8656 49.8266C62.0537 52.1693 59.2296 55.6658 57.958 58.4506C59.4739 57.149 62.0594 54.8896 64.3245 52.8664C64.9388 52.3177 65.6226 51.9771 66.7964 51.8981C66.0101 51.3453 65.4671 50.5607 64.8656 49.8266Z" fill="#FDD57A"/>
<path d="M33.9532 69.084C38.791 67.6728 39.8131 66.8121 42.0274 65.7793" stroke="#FFD166" stroke-opacity="0.85" stroke-width="2" stroke-linecap="round" stroke-linejoin="round"/>
<path d="M30.8507 65.814C35.6495 62.9908 37.6885 61.1835 40.7122 59.0136" stroke="#FFD166" stroke-opacity="0.85" stroke-width="2" stroke-linecap="round" stroke-linejoin="round"/>
<path d="M27.267 61.8021C30.2771 59.4374 31.4754 58.0437 33.2351 56.3491" stroke="#FFD166" stroke-opacity="0.85" stroke-width="2" stroke-linecap="round" stroke-linejoin="round"/>
</svg>
