<svg width="76" height="63" viewBox="0 0 76 63" fill="none" xmlns="http://www.w3.org/2000/svg">
<path d="M23.0919 59.0244C21.9349 62.2489 19.1955 61.8649 16.3945 60.6288C12.4322 58.8798 7.15831 50.9047 6.6334 47.1429C6.15161 43.6905 7.39181 40.9875 10.0963 40.6379" fill="white"/>
<path d="M23.0919 59.0244C21.9349 62.2489 19.1955 61.8649 16.3945 60.6288C12.4322 58.8798 7.15831 50.9047 6.6334 47.1429C6.15161 43.6905 7.39181 40.9875 10.0963 40.6379" stroke="#FFD166" stroke-opacity="0.85" stroke-width="2" stroke-linecap="round" stroke-linejoin="round"/>
<path d="M9.9489 12.3362C5.7292 13.2431 8.075 19.8866 11.6333 26.3749C13.015 28.8943 9.1182 39.1742 11.5282 45.7245C13.096 49.986 18.9799 57.7702 23.1223 58.8452C30.215 60.6858 36.4447 59.4884 42.6709 56.2003C44.8779 55.0348 47.1312 53.3757 48.8224 51.8352C54.3762 46.7764 72.7803 40.5104 73.9536 38.9077C77.2144 34.4549 70.8656 31.6265 67.3758 32.7816C65.6854 33.3411 52.7962 35.9966 54.5129 34.5684C58.73 31.0601 64.2319 27.3423 69.6296 24.1268C77.7068 19.315 67.6704 10.7254 60.1539 15.308C56.6327 17.4548 53.4383 18.8356 45.6935 23.8098C48.576 19.5524 52.484 13.1525 55.7555 9.4262C61.1499 3.2814 50.0714 -2.6468 43.6348 5.0041C39.2516 10.2145 32.3884 20.4622 22.9707 27.3086C23.0479 21.4464 22.6773 9.5999 9.9495 12.3352L9.9489 12.3362Z" fill="white" stroke="#FFD166" stroke-opacity="0.85" stroke-width="2" stroke-linecap="round" stroke-linejoin="round"/>
<path d="M45.1713 22.8466C41.3645 27.782 40.5477 31.1821 39.9469 32.6864C42.249 29.5271 42.7482 28.6649 45.4606 25.4794C45.9204 24.9394 46.5466 24.3852 47.4135 23.8349L45.1713 22.8466Z" fill="#FDD57A"/>
<path d="M53.8656 33.8266C51.0537 36.1693 48.2296 39.6658 46.958 42.4506C48.4739 41.149 51.0594 38.8896 53.3245 36.8664C53.9388 36.3177 54.6226 35.9771 55.7964 35.8981C55.0101 35.3453 54.4671 34.5607 53.8656 33.8266Z" fill="#FDD57A"/>
<path d="M22.9532 53.084C27.791 51.6728 28.8131 50.8121 31.0274 49.7793" stroke="#FFD166" stroke-opacity="0.85" stroke-width="2" stroke-linecap="round" stroke-linejoin="round"/>
<path d="M19.8507 49.814C24.6495 46.9908 26.6885 45.1835 29.7122 43.0136" stroke="#FFD166" stroke-opacity="0.85" stroke-width="2" stroke-linecap="round" stroke-linejoin="round"/>
<path d="M16.267 45.8021C19.2771 43.4374 20.4754 42.0437 22.2351 40.3491" stroke="#FFD166" stroke-opacity="0.85" stroke-width="2" stroke-linecap="round" stroke-linejoin="round"/>
</svg>
