<svg width="60" height="52" viewBox="0 0 60 52" fill="none" xmlns="http://www.w3.org/2000/svg">
<path d="M51.0662 33.8526C54.4636 35.2463 56.0988 32.7931 57.1075 29.6783C58.5332 25.2719 55.9012 15.3581 53.2679 12.2421C50.8322 9.38508 47.817 8.42797 45.5737 10.3342" fill="white"/>
<path d="M51.0662 33.8526C54.4636 35.2463 56.0988 32.7931 57.1075 29.6783C58.5332 25.2719 55.9012 15.3581 53.2679 12.2421C50.8322 9.38508 47.817 8.42797 45.5737 10.3342" stroke="#545D70" stroke-width="2" stroke-linecap="round" stroke-linejoin="round"/>
<path d="M22.7462 2.96044C30.6396 1.24771 44.3178 6.72601 48.6821 15.1148C50.8875 19.4545 52.9972 29.679 50.8926 33.7459C47.3275 40.7057 41.898 44.8027 34.823 47.4001C32.3169 48.3174 29.3955 48.9163 26.9373 49.16C16.905 50.2373 8.9996 48.2837 9.0644 41.3083C0.578709 40.5432 0.51181 27.6428 6.73161 26.5826C-1.5232 21.3185 3.71509 10.8933 12.9628 13.3494C13.8552 11.7463 14.5516 4.74128 22.7462 2.96044Z" fill="white" stroke="#545D70" stroke-width="2" stroke-linecap="round" stroke-linejoin="round"/>
<path d="M7.19513 27.5908C13.8105 28.5733 16.3021 27.3545 18.0497 27.1403C13.8688 26.6305 12.7961 26.6127 8.3955 25.7409C7.64702 25.5918 6.87687 25.3617 5.96385 24.7175L6.00499 27.8936C5.85587 27.9394 6.71905 27.593 7.19513 27.5908Z" fill="#545D70"/>
<path d="M8.40981 42.2567C12.3319 42.4135 17.1718 42.1618 20.1882 40.8609C18.0302 40.8063 12.4605 40.2946 9.20971 40.2776C9.20961 40.2709 9.21671 40.2829 8.40981 42.2567Z" fill="#545D70"/>
<path d="M46.411 29.4863C41.8197 32.3229 40.3946 32.5204 38.0085 33.5376" stroke="#545D70" stroke-width="2" stroke-linecap="round" stroke-linejoin="round"/>
<path d="M46.0022 24.6708C40.3071 26.4657 37.3942 26.7938 33.5238 27.6392" stroke="#545D70" stroke-width="2" stroke-linecap="round" stroke-linejoin="round"/>
<path d="M45.3424 18.9404C41.2927 19.6413 39.3086 19.5977 36.7359 19.7765" stroke="#545D70" stroke-width="2" stroke-linecap="round" stroke-linejoin="round"/>
<path d="M12.2853 12.2721C21.1131 12.8801 24.046 9.75968 28.0816 7.3504C24.0371 10.6763 23.085 14.4683 12.87 14.3915L12.2853 12.2721Z" fill="#545D70"/>
</svg>
