<svg width="95" height="77" viewBox="0 0 95 77" fill="none" xmlns="http://www.w3.org/2000/svg">
<path d="M12.2728 37.7284C8.40428 38.3519 7.30006 35.4048 7.00736 31.9222C6.59465 26.9959 11.7346 17.3305 15.227 14.7312C18.4511 12.3531 21.8166 12.0906 23.6854 14.6168" fill="white"/>
<path d="M12.2728 37.7284C8.40428 38.3519 7.30006 35.4048 7.00736 31.9222C6.59465 26.9959 11.7346 17.3305 15.227 14.7312C18.4511 12.3531 21.8166 12.0906 23.6854 14.6168" stroke="#1178B2" stroke-opacity="0.88" stroke-width="2" stroke-linecap="round" stroke-linejoin="round" style="mix-blend-mode:darken"/>
<path d="M49.1893 12.4944C41.403 8.79743 25.8617 11.1695 19.2923 18.8283C15.9481 22.8031 11.2761 32.9175 12.4765 37.6554C14.4928 45.7548 19.1407 51.3315 25.8621 55.7492C28.2436 57.3112 31.1339 58.6432 33.629 59.4934C42.8065 62.4888 50.8534 57.7646 54.1044 55.6734C59.9505 57.9601 66.7102 61.4156 72.9078 65.0435C82.1778 70.4703 85.3219 55.7089 76.5859 50.7142C72.4963 48.3761 69.3526 45.941 60.1 40.9349C65.9678 41.4753 74.5526 41.8603 80.0951 43.0796C89.2398 45.0926 89.1316 30.7525 77.9001 28.527C70.2516 27.0119 64.136 27.0773 56.8351 25.6679C56.2966 23.7851 57.272 16.3354 49.1893 12.4944Z" fill="white"/>
<path d="M49.1893 12.4944C41.403 8.79743 25.8617 11.1695 19.2923 18.8283C15.9481 22.8031 11.2761 32.9175 12.4765 37.6554C14.4928 45.7548 19.1407 51.3315 25.8621 55.7492C28.2436 57.3112 31.1339 58.6432 33.629 59.4934C42.8065 62.4888 50.8534 57.7646 54.1044 55.6734C59.9505 57.9601 66.7102 61.4156 72.9078 65.0435C82.1778 70.4703 85.3219 55.7089 76.5859 50.7142C72.4963 48.3761 69.3526 45.941 60.1 40.9349C65.9678 41.4753 74.5526 41.8603 80.0951 43.0796C89.2398 45.0926 89.1316 30.7525 77.9001 28.527C70.2516 27.0119 64.136 27.0773 56.8351 25.6679C56.2966 23.7851 57.272 16.3354 49.1893 12.4944Z" stroke="#1178B2" stroke-opacity="0.88" stroke-width="2" stroke-linecap="round" stroke-linejoin="round" style="mix-blend-mode:darken"/>
<path d="M60.7633 39.8778C53.7108 38.7881 49.844 39.8427 47.978 40.0605C52.4356 40.6305 53.5801 40.6562 58.27 41.614C59.0677 41.7778 59.9671 42.0983 60.9978 42.6626L60.7633 39.8778Z" fill="#1178B2" fill-opacity="0.88" style="mix-blend-mode:darken"/>
<path d="M54.4732 54.6244C50.5716 53.101 45.508 52.2028 42.0128 52.4653C46.2724 54.0287 49.6371 55.2588 53.7294 56.6534C53.7337 56.6428 54.0604 55.6274 54.4712 54.6234L54.4732 54.6244Z" fill="#2D87BA" style="mix-blend-mode:darken"/>
<path d="M18.1674 34.32C22.2499 38.383 23.6827 38.9343 25.9152 40.5708Z" fill="#5574BD" style="mix-blend-mode:darken"/>
<path d="M18.1674 34.32C22.2499 38.383 23.6827 38.9343 25.9152 40.5708" stroke="#1178B2" stroke-opacity="0.88" stroke-width="2" stroke-linecap="round" stroke-linejoin="round" style="mix-blend-mode:darken"/>
<path d="M19.7609 29.4139C25.2428 32.6619 28.1897 33.7102 32.006 35.5285Z" fill="#5574BD" style="mix-blend-mode:darken"/>
<path d="M19.7609 29.4139C25.2428 32.6619 28.1897 33.7102 32.006 35.5285" stroke="#1178B2" stroke-opacity="0.88" stroke-width="2" stroke-linecap="round" stroke-linejoin="round" style="mix-blend-mode:darken"/>
<path d="M21.8373 23.6175C25.8749 25.3292 27.9469 25.7656 30.5766 26.5761L21.8373 23.6175Z" fill="#5574BD" style="mix-blend-mode:darken"/>
<path d="M21.8373 23.6175C25.8749 25.3292 27.9469 25.7656 30.5766 26.5761" stroke="#1178B2" stroke-opacity="0.88" stroke-width="2" stroke-linecap="round" stroke-linejoin="round" style="mix-blend-mode:darken"/>
<path d="M57.8023 24.7113C48.4825 23.1994 46.192 19.2443 42.5832 15.7605C45.979 20.1991 46.0485 24.3711 56.6807 26.7718L57.8023 24.7113Z" fill="#1178B2" fill-opacity="0.88" style="mix-blend-mode:darken"/>
</svg>
